# This file uses centimeters as units for non-parametric coordinates.

mtllib Path_Node.mtl
g default
v 1.367024 -0.163593 -0.993201
v 0.522157 -0.163593 -1.607034
v -0.522157 -0.163593 -1.607033
v -1.367024 -0.163593 -0.993201
v -1.689735 -0.163593 0.000000
v -1.367024 -0.163593 0.993201
v -0.522157 -0.163593 1.607034
v 0.522157 -0.163593 1.607033
v 1.367024 -0.163593 0.993201
v 1.689735 -0.163593 0.000000
v 1.367024 0.163593 -0.993201
v 0.522157 0.163593 -1.607034
v -0.522157 0.163593 -1.607033
v -1.367024 0.163593 -0.993201
v -1.689735 0.163593 0.000000
v -1.367024 0.163593 0.993201
v -0.522157 0.163593 1.607034
v 0.522157 0.163593 1.607033
v 1.367024 0.163593 0.993201
v 1.689735 0.163593 0.000000
v 1.214725 -0.280838 -0.882550
v 0.463983 -0.280838 -1.427995
v -0.463984 -0.280838 -1.427995
v -1.214725 -0.280838 -0.882549
v -1.501482 -0.280838 0.000000
v -1.214725 -0.280838 0.882550
v -0.463983 -0.280838 1.427995
v 0.463983 -0.280838 1.427995
v 1.214725 -0.280838 0.882549
v 1.501482 -0.280838 0.000000
v 1.214725 0.280838 -0.882550
v 0.463983 0.280838 -1.427995
v -0.463983 0.280838 -1.427995
v -1.214725 0.280838 -0.882549
v -1.501482 0.280838 0.000000
v -1.214725 0.280838 0.882550
v -0.463983 0.280838 1.427995
v 0.463983 0.280838 1.427995
v 1.214725 0.280838 0.882549
v 1.501482 0.280838 0.000000
v 0.137172 -0.468333 -0.137172
v 0.000000 -0.468333 -0.193990
v -0.137172 -0.468333 -0.137172
v -0.193990 -0.468333 0.000000
v -0.137172 -0.468333 0.137172
v 0.000000 -0.468333 0.193990
v 0.137172 -0.468333 0.137172
v 0.193990 -0.468333 0.000000
v 0.253460 -0.358447 -0.253460
v 0.000000 -0.358447 -0.358447
v -0.253460 -0.358447 -0.253460
v -0.358447 -0.358447 0.000000
v -0.253460 -0.358447 0.253460
v 0.000000 -0.358447 0.358447
v 0.253460 -0.358447 0.253460
v 0.358447 -0.358447 0.000000
v 0.331162 -0.193990 -0.331162
v 0.000000 -0.193990 -0.468333
v -0.331162 -0.193990 -0.331162
v -0.468333 -0.193990 0.000000
v -0.331162 -0.193990 0.331162
v 0.000000 -0.193990 0.468333
v 0.331162 -0.193990 0.331162
v 0.468333 -0.193990 0.000000
v 0.358447 -0.000000 -0.358447
v 0.000000 -0.000000 -0.506920
v -0.358447 -0.000000 -0.358447
v -0.506920 -0.000000 0.000000
v -0.358447 -0.000000 0.358447
v 0.000000 -0.000000 0.506921
v 0.358447 -0.000000 0.358447
v 0.506921 -0.000000 0.000000
v 0.331162 0.193990 -0.331162
v 0.000000 0.193990 -0.468333
v -0.331162 0.193990 -0.331162
v -0.468333 0.193990 0.000000
v -0.331162 0.193990 0.331162
v 0.000000 0.193990 0.468333
v 0.331162 0.193990 0.331162
v 0.468333 0.193990 0.000000
v 0.253460 0.358447 -0.253460
v 0.000000 0.358447 -0.358447
v -0.253460 0.358447 -0.253460
v -0.358447 0.358447 0.000000
v -0.253460 0.358447 0.253460
v 0.000000 0.358447 0.358447
v 0.253460 0.358447 0.253460
v 0.358447 0.358447 0.000000
v 0.137172 0.468333 -0.137172
v 0.000000 0.468333 -0.193990
v -0.137172 0.468333 -0.137172
v -0.193990 0.468333 0.000000
v -0.137172 0.468333 0.137172
v 0.000000 0.468333 0.193990
v 0.137172 0.468333 0.137172
v 0.193990 0.468333 0.000000
v 0.000000 -0.506921 0.000000
v 0.000000 0.506920 0.000000
v -0.652345 2.166466 0.139517
v -0.380030 2.166466 0.136883
v 0.380030 2.166466 0.136883
v 0.652345 2.166466 0.139517
v -0.764165 2.202026 0.000000
v -0.307161 2.202026 0.000000
v 0.307161 2.202026 0.000000
v 0.764165 2.202026 0.000000
v -0.652345 2.166466 -0.139517
v -0.380030 2.166466 -0.136883
v 0.380030 2.166466 -0.136883
v 0.652345 2.166466 -0.139517
v 0.000000 1.252910 -0.158917
v 0.000000 1.252910 0.158917
v -0.295993 1.689735 -0.158917
v 0.295993 1.689735 -0.158917
v -0.292746 1.689735 0.158917
v 0.292746 1.689735 0.158917
v 0.000000 1.643725 -0.158917
v 0.000000 1.643725 0.158917
v 0.000000 1.726488 0.000000
v 0.409922 1.689735 0.000000
v 0.000000 1.177444 0.000000
v -0.409922 1.689735 0.000000
v -0.499866 2.166466 -0.167960
v -0.314995 1.928101 -0.196748
v 0.000000 1.451369 -0.238366
v 0.314995 1.928101 -0.196748
v 0.499866 2.166466 -0.167960
v -0.499866 2.166466 0.167960
v -0.314995 1.928101 0.196748
v 0.000000 1.451369 0.238366
v 0.314995 1.928101 0.196748
v 0.499866 2.166466 0.167960
v -0.699697 2.278359 0.000000
v 0.699697 2.278359 0.000000
v 0.183306 1.382360 0.000000
v 0.049031 1.308350 -0.158917
v 0.049031 1.308350 0.158917
v -0.049031 1.308350 -0.158917
v -0.183306 1.382360 0.000000
v -0.049031 1.308350 0.158917
v 0.000000 1.284691 -0.182811
v 0.000000 1.295866 0.186536
vt 0.016823 0.799338
vt 0.016934 0.700688
vt 0.054926 0.696237
vt 0.054987 0.795454
vt 0.096393 0.143331
vt 0.080776 0.224088
vt 0.016952 0.602184
vt 0.054893 0.597386
vt 0.129193 0.229936
vt 0.141900 0.155352
vt 0.016516 0.898353
vt 0.055139 0.895263
vt 0.123994 0.072415
vt 0.074666 0.309257
vt 0.016934 0.503676
vt 0.054865 0.498760
vt 0.125572 0.309983
vt 0.165372 0.086362
vt 0.076127 0.397318
vt 0.129118 0.394256
vt 0.016874 0.306200
vt 0.016813 0.206982
vt 0.054977 0.203098
vt 0.054866 0.301749
vt 0.093666 0.579507
vt 0.105808 0.671393
vt 0.016661 0.107173
vt 0.055284 0.104084
vt 0.161419 0.663849
vt 0.148924 0.572614
vt 0.016907 0.405051
vt 0.054848 0.400252
vt 0.083204 0.487864
vt 0.118809 0.763584
vt 0.016291 0.006397
vt 0.055509 0.996039
vt 0.174469 0.755739
vt 0.137756 0.482324
vt 0.131904 0.855369
vt 0.187574 0.018057
vt 0.068746 0.206914
vt 0.069065 0.113005
vt 0.068659 0.302680
vt 0.068659 0.399499
vt 0.068685 0.496882
vt 0.068714 0.594472
vt 0.068751 0.691910
vt 0.068835 0.788685
vt 0.069086 0.883931
vt 0.069823 0.976081
vt 0.002965 0.213751
vt 0.002714 0.118506
vt 0.003049 0.310527
vt 0.003086 0.407964
vt 0.003115 0.505555
vt 0.003141 0.602937
vt 0.003141 0.699756
vt 0.003054 0.795523
vt 0.002735 0.889431
vt 0.001977 0.026355
vt 0.146267 0.004575
vt 0.187456 0.847499
vt 0.069989 0.022485
vt 0.055953 0.004428
vt 0.015847 0.998008
vt 0.001811 0.979951
vt 0.694285 0.070752
vt 0.677048 0.062363
vt 0.694738 0.026721
vt 0.712379 0.052540
vt 0.677044 0.150073
vt 0.692118 0.143799
vt 0.705874 0.163775
vt 0.685604 0.182800
vt 0.700476 0.132748
vt 0.714847 0.144967
vt 0.704761 0.120481
vt 0.719218 0.127097
vt 0.706376 0.107950
vt 0.721171 0.109659
vt 0.705717 0.095358
vt 0.721225 0.092029
vt 0.702289 0.082768
vt 0.718929 0.073425
vt 0.725068 0.006905
vt 0.732644 0.043962
vt 0.723496 0.175894
vt 0.707151 0.207551
vt 0.729952 0.151857
vt 0.733126 0.130839
vt 0.734840 0.110922
vt 0.735537 0.090888
vt 0.735041 0.069404
vt 0.759093 0.003882
vt 0.753397 0.042624
vt 0.743400 0.181260
vt 0.737769 0.219972
vt 0.745701 0.154903
vt 0.747132 0.132690
vt 0.748381 0.111947
vt 0.749659 0.091214
vt 0.751071 0.068989
vt 0.789730 0.016358
vt 0.773312 0.048009
vt 0.764135 0.179911
vt 0.771742 0.216915
vt 0.761721 0.154487
vt 0.761235 0.133006
vt 0.761922 0.112975
vt 0.763655 0.093061
vt 0.766826 0.072042
vt 0.811256 0.041165
vt 0.790932 0.060152
vt 0.784375 0.171331
vt 0.802008 0.197107
vt 0.777818 0.150465
vt 0.775530 0.131866
vt 0.775587 0.114242
vt 0.777555 0.096808
vt 0.781933 0.078945
vt 0.819757 0.073923
vt 0.804668 0.080153
vt 0.802438 0.153135
vt 0.819651 0.161518
vt 0.794428 0.141127
vt 0.791022 0.128545
vt 0.790375 0.115961
vt 0.792002 0.103437
vt 0.796296 0.091182
vt 0.683206 0.108216
vt 0.813524 0.115736
vt 0.811447 0.325316
vt 0.787214 0.315522
vt 0.782628 0.306355
vt 0.787395 0.292625
vt 0.714115 0.237174
vt 0.704991 0.232499
vt 0.695427 0.208169
vt 0.727892 0.232539
vt 0.879356 0.325600
vt 0.888889 0.349956
vt 0.856445 0.325518
vt 0.870234 0.320911
vt 0.797042 0.265409
vt 0.772999 0.232676
vt 0.797235 0.242500
vt 0.801814 0.251677
vt 0.889787 0.332703
vt 0.877106 0.299112
vt 0.889571 0.280134
vt 0.876628 0.246164
vt 0.887360 0.235554
vt 0.890628 0.239404
vt 0.760775 0.312992
vt 0.707266 0.258966
vt 0.823692 0.245066
vt 0.842815 0.232827
vt 0.883547 0.232243
vt 0.790258 0.231984
vt 0.707808 0.311945
vt 0.721411 0.298471
vt 0.907428 0.249666
vt 0.907431 0.287147
vt 0.873477 0.215327
vt 0.836015 0.214889
vt 0.849656 0.272821
vt 0.863014 0.259620
vt 0.734767 0.285243
vt 0.684097 0.335435
vt 0.677047 0.308457
vt 0.693834 0.318718
vt 0.695084 0.324549
vt 0.748483 0.343094
vt 0.711007 0.342736
vt 0.700903 0.325854
vt 0.741484 0.325017
vt 0.794184 0.326019
vt 0.697694 0.321964
vt 0.695055 0.278145
vt 0.694559 0.225428
vt 0.900440 0.346267
vt 0.807636 0.336817
vt 0.683887 0.211872
vt 0.776826 0.221172
vt 0.889375 0.233561
vt 0.900387 0.222674
vt 0.677044 0.270974
vn 0.763021 -0.332379 -0.554367
vn 0.291448 -0.332378 -0.896985
vn 0.291448 0.332378 -0.896985
vn 0.763021 0.332379 -0.554367
vn -0.291448 -0.332378 -0.896985
vn -0.291448 0.332378 -0.896985
vn -0.763021 -0.332379 -0.554367
vn -0.763021 0.332379 -0.554367
vn -0.943146 -0.332379 0.000000
vn -0.943146 0.332379 0.000000
vn -0.763021 -0.332379 0.554367
vn -0.763021 0.332379 0.554367
vn -0.291448 -0.332378 0.896985
vn -0.291448 0.332378 0.896985
vn 0.291448 -0.332378 0.896985
vn 0.291448 0.332378 0.896985
vn 0.763021 -0.332379 0.554367
vn 0.763021 0.332379 0.554367
vn 0.943146 -0.332379 0.000000
vn 0.943146 0.332379 0.000000
vn -0.705235 -0.490007 0.512383
vn -0.269376 -0.490006 0.829054
vn 0.269376 -0.490005 0.829054
vn 0.705236 -0.490006 0.512383
vn 0.871719 -0.490007 -0.000000
vn 0.705235 -0.490007 -0.512383
vn 0.269376 -0.490006 -0.829054
vn -0.269376 -0.490006 -0.829054
vn -0.705236 -0.490007 -0.512383
vn -0.871719 -0.490007 -0.000000
vn -0.269376 0.490006 0.829054
vn -0.705235 0.490007 0.512383
vn 0.269376 0.490005 0.829054
vn 0.705236 0.490006 0.512383
vn 0.871719 0.490007 -0.000000
vn 0.705236 0.490007 -0.512383
vn 0.269376 0.490006 -0.829054
vn -0.269376 0.490006 -0.829054
vn -0.705236 0.490007 -0.512383
vn -0.871719 0.490007 -0.000000
vn 0.350881 -0.868197 -0.350881
vn 0.000000 -0.868197 -0.496220
vn 0.000000 -0.654266 -0.756265
vn 0.534760 -0.654266 -0.534760
vn -0.350881 -0.868197 -0.350881
vn -0.534760 -0.654266 -0.534760
vn -0.496220 -0.868197 0.000000
vn -0.756265 -0.654266 0.000000
vn -0.350881 -0.868197 0.350881
vn -0.534760 -0.654266 0.534760
vn -0.000000 -0.868197 0.496220
vn -0.000000 -0.654266 0.756265
vn 0.350881 -0.868197 0.350881
vn 0.534760 -0.654266 0.534760
vn 0.496220 -0.868197 -0.000000
vn 0.756265 -0.654266 -0.000000
vn 0.000000 -0.349894 -0.936789
vn 0.662410 -0.349894 -0.662410
vn -0.662410 -0.349894 -0.662410
vn -0.936789 -0.349894 0.000000
vn -0.662410 -0.349894 0.662410
vn -0.000000 -0.349894 0.936789
vn 0.662410 -0.349894 0.662410
vn 0.936789 -0.349894 -0.000000
vn 0.000000 0.000000 -1.000000
vn 0.707107 0.000000 -0.707107
vn -0.707107 0.000000 -0.707107
vn -1.000000 -0.000000 0.000000
vn -0.707107 0.000000 0.707107
vn -0.000000 0.000000 1.000000
vn 0.707107 0.000000 0.707107
vn 1.000000 0.000000 -0.000000
vn 0.000000 0.349894 -0.936789
vn 0.662410 0.349894 -0.662410
vn -0.662410 0.349894 -0.662410
vn -0.936789 0.349894 0.000000
vn -0.662410 0.349894 0.662410
vn -0.000000 0.349894 0.936789
vn 0.662410 0.349894 0.662410
vn 0.936789 0.349894 -0.000000
vn 0.000000 0.654266 -0.756265
vn 0.534760 0.654266 -0.534760
vn -0.534760 0.654266 -0.534760
vn -0.756265 0.654266 0.000000
vn -0.534760 0.654266 0.534760
vn -0.000000 0.654266 0.756265
vn 0.534760 0.654266 0.534760
vn 0.756265 0.654266 -0.000000
vn -0.000000 0.868197 -0.496220
vn 0.350881 0.868197 -0.350881
vn -0.350881 0.868197 -0.350881
vn -0.496220 0.868197 0.000000
vn -0.350881 0.868197 0.350881
vn -0.000000 0.868197 0.496220
vn 0.350881 0.868197 0.350881
vn 0.496220 0.868197 -0.000000
vn 0.000000 -1.000000 0.000000
vn 0.000000 1.000000 0.000000
vn -0.132355 0.991202 0.000000
vn -0.094080 0.409925 0.907255
vn 0.521489 0.673606 0.523740
vn 0.700830 0.713329 0.000000
vn -0.521490 0.673606 0.523740
vn 0.094080 0.409925 0.907255
vn 0.132355 0.991202 -0.000000
vn -0.700830 0.713329 -0.000000
vn -0.093674 0.409187 -0.907629
vn 0.521489 0.673606 -0.523740
vn 0.093674 0.409187 -0.907629
vn -0.521490 0.673606 -0.523740
vn -0.668636 -0.296571 -0.681888
vn 0.071540 0.109955 -0.991359
vn -0.604880 -0.391474 -0.693447
vn -0.000000 -0.141362 -0.989958
vn 0.000000 -0.270111 -0.962829
vn -0.588488 -0.401540 -0.701747
vn 0.072774 0.110423 0.991217
vn -0.072774 0.110423 0.991217
vn -0.071540 0.109955 -0.991359
vn 0.604880 -0.391474 -0.693447
vn 0.588488 -0.401540 -0.701747
vn 0.668636 -0.296571 -0.681888
vn -0.000000 -0.141734 0.989905
vn -0.000000 0.525513 0.850786
vn -0.814897 -0.579592 0.004031
vn -0.819260 -0.573404 0.004592
vn 0.814897 -0.579592 0.004031
vn 0.819260 -0.573404 0.004592
vn -0.000000 1.000000 -0.000000
vn -0.000000 0.525513 -0.850786
vn -0.000000 -1.000000 0.000000
vn 0.598318 -0.410291 0.688242
vn 0.000000 -0.895786 0.444486
vn -0.598318 -0.410291 0.688242
vn -0.605583 -0.391207 0.692984
vn -0.666463 -0.297747 0.683501
vn -0.000000 -0.271831 0.962345
vn 0.605583 -0.391207 0.692984
vn 0.666464 -0.297747 0.683500
vn -0.926035 -0.377413 0.004348
vn 0.926035 -0.377413 0.004348
vn -0.000000 -0.897625 -0.440760
s 1
g Node
usemtl initialShadingGroup
f 1/27/1 2/35/2 12/64/3 11/28/4
f 2/65/2 3/11/5 13/12/6 12/36/3
f 3/11/5 4/1/7 14/4/8 13/12/6
f 4/1/7 5/2/9 15/3/10 14/4/8
f 5/2/9 6/7/11 16/8/12 15/3/10
f 6/7/11 7/15/13 17/16/14 16/8/12
f 7/15/13 8/31/15 18/32/16 17/16/14
f 8/31/15 9/21/17 19/24/18 18/32/16
f 9/21/17 10/22/19 20/23/20 19/24/18
f 10/22/19 1/27/1 11/28/4 20/23/20
f 2/35/2 1/27/1 21/52/21 22/60/22
f 3/11/5 2/65/2 22/66/22 23/59/23
f 4/1/7 3/11/5 23/59/23 24/58/24
f 5/2/9 4/1/7 24/58/24 25/57/25
f 6/7/11 5/2/9 25/57/25 26/56/26
f 7/15/13 6/7/11 26/56/26 27/55/27
f 8/31/15 7/15/13 27/55/27 28/54/28
f 9/21/17 8/31/15 28/54/28 29/53/29
f 10/22/19 9/21/17 29/53/29 30/51/30
f 1/27/1 10/22/19 30/51/30 21/52/21
f 11/28/4 12/64/3 32/63/31 31/42/32
f 12/36/3 13/12/6 33/49/33 32/50/31
f 13/12/6 14/4/8 34/48/34 33/49/33
f 14/4/8 15/3/10 35/47/35 34/48/34
f 15/3/10 16/8/12 36/46/36 35/47/35
f 16/8/12 17/16/14 37/45/37 36/46/36
f 17/16/14 18/32/16 38/44/38 37/45/37
f 18/32/16 19/24/18 39/43/39 38/44/38
f 19/24/18 20/23/20 40/41/40 39/43/39
f 20/23/20 11/28/4 31/42/32 40/41/40
f 22/39/22 21/34/21 31/37/32 32/62/31
f 21/34/21 30/26/30 40/29/40 31/37/32
f 30/26/30 29/25/29 39/30/39 40/29/40
f 29/25/29 28/33/28 38/38/38 39/30/39
f 28/33/28 27/19/27 37/20/37 38/38/38
f 27/19/27 26/14/26 36/17/36 37/20/37
f 26/14/26 25/6/25 35/9/35 36/17/36
f 25/6/25 24/5/24 34/10/34 35/9/35
f 24/5/24 23/13/23 33/18/33 34/10/34
f 23/13/23 22/61/22 32/40/31 33/18/33
s 2
f 41/67/41 42/68/42 50/69/43 49/70/44
f 42/71/42 43/72/45 51/73/46 50/74/43
f 43/72/45 44/75/47 52/76/48 51/73/46
f 44/75/47 45/77/49 53/78/50 52/76/48
f 45/77/49 46/79/51 54/80/52 53/78/50
f 46/79/51 47/81/53 55/82/54 54/80/52
f 47/81/53 48/83/55 56/84/56 55/82/54
f 48/83/55 41/67/41 49/70/44 56/84/56
f 49/70/44 50/69/43 58/85/57 57/86/58
f 50/74/43 51/73/46 59/87/59 58/88/57
f 51/73/46 52/76/48 60/89/60 59/87/59
f 52/76/48 53/78/50 61/90/61 60/89/60
f 53/78/50 54/80/52 62/91/62 61/90/61
f 54/80/52 55/82/54 63/92/63 62/91/62
f 55/82/54 56/84/56 64/93/64 63/92/63
f 56/84/56 49/70/44 57/86/58 64/93/64
f 57/86/58 58/85/57 66/94/65 65/95/66
f 58/88/57 59/87/59 67/96/67 66/97/65
f 59/87/59 60/89/60 68/98/68 67/96/67
f 60/89/60 61/90/61 69/99/69 68/98/68
f 61/90/61 62/91/62 70/100/70 69/99/69
f 62/91/62 63/92/63 71/101/71 70/100/70
f 63/92/63 64/93/64 72/102/72 71/101/71
f 64/93/64 57/86/58 65/95/66 72/102/72
f 65/95/66 66/94/65 74/103/73 73/104/74
f 66/97/65 67/96/67 75/105/75 74/106/73
f 67/96/67 68/98/68 76/107/76 75/105/75
f 68/98/68 69/99/69 77/108/77 76/107/76
f 69/99/69 70/100/70 78/109/78 77/108/77
f 70/100/70 71/101/71 79/110/79 78/109/78
f 71/101/71 72/102/72 80/111/80 79/110/79
f 72/102/72 65/95/66 73/104/74 80/111/80
f 73/104/74 74/103/73 82/112/81 81/113/82
f 74/106/73 75/105/75 83/114/83 82/115/81
f 75/105/75 76/107/76 84/116/84 83/114/83
f 76/107/76 77/108/77 85/117/85 84/116/84
f 77/108/77 78/109/78 86/118/86 85/117/85
f 78/109/78 79/110/79 87/119/87 86/118/86
f 79/110/79 80/111/80 88/120/88 87/119/87
f 80/111/80 73/104/74 81/113/82 88/120/88
f 81/113/82 82/112/81 90/121/89 89/122/90
f 82/115/81 83/114/83 91/123/91 90/124/89
f 83/114/83 84/116/84 92/125/92 91/123/91
f 84/116/84 85/117/85 93/126/93 92/125/92
f 85/117/85 86/118/86 94/127/94 93/126/93
f 86/118/86 87/119/87 95/128/95 94/127/94
f 87/119/87 88/120/88 96/129/96 95/128/95
f 88/120/88 81/113/82 89/122/90 96/129/96
f 42/68/42 41/67/41 97/130/97
f 43/72/45 42/71/42 97/130/97
f 44/75/47 43/72/45 97/130/97
f 45/77/49 44/75/47 97/130/97
f 46/79/51 45/77/49 97/130/97
f 47/81/53 46/79/51 97/130/97
f 48/83/55 47/81/53 97/130/97
f 41/67/41 48/83/55 97/130/97
f 89/122/90 90/121/89 98/131/98
f 90/124/89 91/123/91 98/131/98
f 91/123/91 92/125/92 98/131/98
f 92/125/92 93/126/93 98/131/98
f 93/126/93 94/127/94 98/131/98
f 94/127/94 95/128/95 98/131/98
f 95/128/95 96/129/96 98/131/98
f 96/129/96 89/122/90 98/131/98
s 3
f 133/132/99 128/133/100 100/134/101 104/135/102
f 101/136/103 132/137/104 134/138/105 105/139/106
f 123/140/107 133/141/99 104/142/102 108/143/108
f 105/144/106 134/145/105 127/146/109 109/147/110
f 107/148/111 123/140/107 124/149/112 113/150/113
f 124/149/112 125/151/114 141/152/115 138/153/116 113/150/113
f 128/133/100 129/154/117 100/134/101
f 131/155/118 132/137/104 101/136/103
f 125/151/114 126/156/119 114/157/120 136/158/121 141/152/115
f 126/156/119 127/146/109 110/159/122 114/157/120
f 129/154/117 130/160/123 118/161/124 100/134/101
f 130/160/123 131/155/118 101/136/103 118/161/124
f 113/150/113 138/153/116 139/162/125 122/163/126
f 135/164/127 136/158/121 114/157/120 120/165/128
f 108/143/108 104/142/102 119/166/129 117/167/130
f 104/135/102 100/134/101 118/161/124 119/168/129
f 121/169/131 135/170/127 137/171/132 112/172/133
f 122/173/126 139/174/125 140/175/134 115/176/135
f 124/149/112 123/140/107 108/143/108
f 108/143/108 117/167/130 125/151/114 124/149/112
f 117/167/130 109/147/110 126/156/119 125/151/114
f 109/147/110 127/146/109 126/156/119
f 99/177/136 115/176/135 129/154/117 128/133/100
f 142/178/137 140/175/134 112/172/133
f 112/172/133 137/171/132 142/178/137
f 116/179/138 102/180/139 132/137/104 131/155/118
f 103/181/140 133/141/99 123/140/107 107/148/111
f 99/177/136 128/133/100 133/132/99 103/182/140
f 134/138/105 132/137/104 102/180/139 106/183/141
f 127/146/109 134/145/105 106/184/141 110/159/122
f 105/144/106 109/147/110 117/167/130 119/166/129
f 101/136/103 105/139/106 119/168/129 118/161/124
f 111/185/142 136/158/121 135/164/127 121/186/131
f 137/171/132 135/170/127 120/187/128 116/179/138
f 139/162/125 138/153/116 111/185/142 121/186/131
f 140/175/134 139/174/125 121/169/131 112/172/133
f 141/152/115 136/158/121 111/185/142
f 138/153/116 141/152/115 111/185/142
f 142/178/137 137/171/132 116/179/138 131/155/118 130/160/123
f 115/176/135 140/175/134 142/178/137 130/160/123 129/154/117
f 110/159/122 106/184/141 120/165/128 114/157/120
f 106/183/141 102/180/139 116/179/138 120/187/128
f 103/181/140 107/148/111 113/150/113 122/163/126
f 99/177/136 103/182/140 122/173/126 115/176/135
