# This file uses centimeters as units for non-parametric coordinates.

mtllib Path_Arrow.mtl
g default
v -1.368369 -0.292653 0.919941
v -0.797158 -0.287128 0.919941
v 0.797158 -0.287128 0.919941
v 1.368369 -0.292653 0.919941
v -1.602926 0.000000 0.994532
v -0.644307 0.000000 0.994532
v 0.644307 0.000000 0.994532
v 1.602926 0.000000 0.994532
v -1.368369 0.292653 0.919941
v -0.797158 0.287128 0.919941
v 0.797158 0.287128 0.919941
v 1.368369 0.292653 0.919941
v 0.000000 0.333348 -0.996350
v 0.000000 -0.333348 -0.996350
v -0.620881 0.333348 -0.080059
v 0.620881 0.333348 -0.080059
v -0.614069 -0.333348 -0.080059
v 0.614069 -0.333348 -0.080059
v 0.000000 0.333348 -0.176571
v 0.000000 -0.333348 -0.176571
v 0.000000 0.000000 -0.002966
v 0.859858 0.000000 -0.080059
v 0.000000 0.000000 -1.154650
v -0.859858 0.000000 -0.080059
v -1.048527 0.352316 0.919941
v -0.660738 0.412702 0.419941
v 0.000000 0.500000 -0.580059
v 0.660738 0.412702 0.419941
v 1.048527 0.352316 0.919941
v -1.048527 -0.352316 0.919941
v -0.660738 -0.412702 0.419941
v 0.000000 -0.500000 -0.580059
v 0.660738 -0.412702 0.419941
v 1.048527 -0.352316 0.919941
v -1.467697 0.000000 1.154650
v 1.467697 0.000000 1.154650
v 0.384505 0.000000 -0.724814
v 0.102848 0.333348 -0.880059
v 0.102848 -0.333348 -0.880059
v -0.102848 0.333348 -0.880059
v -0.384505 0.000000 -0.724814
v -0.102848 -0.333348 -0.880059
v 0.000000 0.383468 -0.929685
v 0.000000 -0.391280 -0.906246
vt 0.255729 0.884325
vt 0.325046 0.842723
vt 0.568007 0.597639
vt 0.608999 0.527945
vt 0.645425 0.467651
vt 0.489488 0.394108
vt 0.278939 0.181055
vt 0.656698 0.489680
vt 0.607666 0.419575
vt 0.538361 0.377776
vt 0.295854 0.132384
vt 0.254896 0.062585
vt 0.606207 0.068174
vt 0.257704 0.533040
vt 0.606903 0.233246
vt 0.441178 0.065572
vt 0.257559 0.697508
vt 0.422172 0.531423
vt 0.512770 0.160536
vt 0.350990 0.625497
vt 0.398310 0.672405
vt 0.417077 0.001992
vt 0.645238 0.029584
vt 0.193720 0.722905
vt 0.570695 0.394398
vt 0.562721 0.300513
vt 0.561026 0.112842
vt 0.373399 0.108950
vt 0.279625 0.099855
vt 0.292705 0.859278
vt 0.300808 0.765488
vt 0.302791 0.577724
vt 0.490546 0.574077
vt 0.584277 0.565147
vt 0.258783 0.945486
vt 0.193720 0.065035
vt 0.314151 0.468587
vt 0.585551 0.063500
vt 0.278329 0.528419
vt 0.610647 0.088884
vt 0.193763 0.590066
vt 0.253269 0.553706
vt 0.599064 0.075237
vt 0.266953 0.542206
vt 0.670193 0.125256
vt 0.549858 0.003543
vt 0.670196 0.530459
vt 0.604482 0.480725
vt 0.217894 0.932351
vt 0.373864 0.859173
vt 0.670205 0.258103
vt 0.465427 0.207326
vt 0.584884 0.646319
vt 0.207286 0.024260
vt 0.447002 0.467354
vt 0.218764 0.494453
vn -0.132355 0.000000 0.991202
vn -0.094080 -0.907254 0.409925
vn 0.521490 -0.523739 0.673607
vn 0.700830 -0.000000 0.713329
vn -0.521490 -0.523739 0.673607
vn 0.094080 -0.907254 0.409925
vn 0.132355 0.000000 0.991202
vn -0.700830 0.000000 0.713329
vn -0.093675 0.907629 0.409188
vn 0.521490 0.523739 0.673607
vn 0.093675 0.907629 0.409188
vn -0.521490 0.523739 0.673607
vn -0.668637 0.681888 -0.296571
vn 0.071540 0.991359 0.109955
vn -0.604880 0.693447 -0.391474
vn 0.000000 0.989958 -0.141362
vn 0.000000 0.962829 -0.270111
vn -0.588488 0.701746 -0.401540
vn 0.072774 -0.991217 0.110423
vn -0.072774 -0.991217 0.110423
vn -0.071540 0.991359 0.109955
vn 0.604880 0.693447 -0.391474
vn 0.588488 0.701746 -0.401540
vn 0.668637 0.681888 -0.296571
vn 0.000000 -0.989905 -0.141735
vn 0.000000 -0.850786 0.525512
vn -0.814896 -0.004031 -0.579593
vn -0.819260 -0.004592 -0.573404
vn 0.814897 -0.004031 -0.579593
vn 0.819260 -0.004592 -0.573404
vn -0.000000 0.000000 1.000000
vn -0.000000 0.850786 0.525512
vn 0.000000 -0.000000 -1.000000
vn 0.598318 -0.688242 -0.410291
vn -0.000000 -0.444486 -0.895786
vn -0.598318 -0.688242 -0.410291
vn -0.605583 -0.692983 -0.391207
vn -0.666464 -0.683500 -0.297747
vn 0.000000 -0.962345 -0.271831
vn 0.605583 -0.692983 -0.391207
vn 0.666464 -0.683500 -0.297747
vn -0.926035 -0.004348 -0.377413
vn 0.926035 -0.004348 -0.377413
vn 0.000000 0.440760 -0.897625
s 1
g Arrow
usemtl initialShadingGroup
f 35/35/1 30/30/2 2/2/3 6/50/4
f 3/3/5 34/34/6 36/47/7 7/53/8
f 25/25/9 35/48/1 6/6/4 10/10/10
f 7/7/8 36/36/7 29/29/11 11/11/12
f 9/9/13 25/25/9 26/26/14 15/15/15
f 26/26/14 27/27/16 43/43/17 40/40/18 15/15/15
f 30/30/2 31/31/19 2/2/3
f 33/33/20 34/34/6 3/3/5
f 27/27/16 28/28/21 16/16/22 38/38/23 43/43/17
f 28/28/21 29/29/11 12/12/24 16/16/22
f 31/31/19 32/32/25 20/20/26 2/2/3
f 32/32/25 33/33/20 3/3/5 20/20/26
f 15/15/15 40/40/18 41/45/27 24/51/28
f 37/46/29 38/38/23 16/16/22 22/22/30
f 10/10/10 6/6/4 21/52/31 19/19/32
f 6/50/4 2/2/3 20/20/26 21/21/31
f 23/56/33 37/37/29 39/39/34 14/14/35
f 24/24/28 41/41/27 42/42/36 17/17/37
f 26/26/14 25/25/9 10/10/10
f 10/10/10 19/19/32 27/27/16 26/26/14
f 19/19/32 11/11/12 28/28/21 27/27/16
f 11/11/12 29/29/11 28/28/21
f 1/1/38 17/17/37 31/31/19 30/30/2
f 44/44/39 42/42/36 14/14/35
f 14/14/35 39/39/34 44/44/39
f 18/18/40 4/4/41 34/34/6 33/33/20
f 5/5/42 35/48/1 25/25/9 9/9/13
f 1/1/38 30/30/2 35/35/1 5/49/42
f 36/47/7 34/34/6 4/4/41 8/8/43
f 29/29/11 36/36/7 8/54/43 12/12/24
f 7/7/8 11/11/12 19/19/32 21/52/31
f 3/3/5 7/53/8 21/21/31 20/20/26
f 13/13/44 38/38/23 37/46/29 23/23/33
f 39/39/34 37/37/29 22/55/30 18/18/40
f 41/45/27 40/40/18 13/13/44 23/23/33
f 42/42/36 41/41/27 23/56/33 14/14/35
f 43/43/17 38/38/23 13/13/44
f 40/40/18 43/43/17 13/13/44
f 44/44/39 39/39/34 18/18/40 33/33/20 32/32/25
f 17/17/37 42/42/36 44/44/39 32/32/25 31/31/19
f 12/12/24 8/54/43 22/22/30 16/16/22
f 8/8/43 4/4/41 18/18/40 22/55/30
f 5/5/42 9/9/13 15/15/15 24/51/28
f 1/1/38 5/49/42 24/24/28 17/17/37
