# Blender v2.80 (sub 75) OBJ File: 'Assets.blend'
# www.blender.org
mtllib Piedra 1.mtl
o Piedra1_Plane.001
v 1.035447 0.219038 0.145832
v 0.926239 0.429589 -0.002253
v 0.735894 0.263700 -0.143980
v 0.768828 -0.002405 -0.060935
v 0.911932 -0.002405 0.084005
v 0.424018 0.405622 0.074155
v 0.422750 0.302563 -0.001170
v 0.334518 -0.002405 0.088797
v 0.800362 0.290286 0.383494
v 0.632187 -0.002405 0.463844
v 0.446413 0.333814 0.352501
v 0.369322 -0.002405 0.513673
vt 0.000000 0.000000
vt 0.000000 0.000000
vt 0.000000 0.000000
vt 0.000000 0.000000
vt 0.000000 0.000000
vt 0.000000 0.000000
vt 0.000000 0.000000
vt 0.000000 0.000000
vt 0.000000 0.000000
vt 0.000000 0.000000
vt 0.000000 0.000000
vt 0.000000 0.000000
vn 0.6805 -0.1579 -0.7155
vn -0.1759 0.6911 -0.7011
vn -0.3647 -0.2374 -0.9003
vn 0.0381 0.9506 0.3081
vn -0.9695 0.2372 0.0626
vn 0.0527 0.3400 0.9389
vn 0.7231 0.1122 0.6816
vn 0.7713 -0.2872 0.5680
usemtl Piedra
s off
f 2/1/1 1/2/1 5/3/1 4/4/1 3/5/1
f 3/5/2 7/6/2 6/7/2 2/1/2
f 4/4/3 8/8/3 7/6/3 3/5/3
f 6/7/4 11/9/4 9/10/4 2/1/4
f 6/7/5 7/6/5 8/8/5 12/11/5 11/9/5
f 10/12/6 9/10/6 11/9/6 12/11/6
f 2/1/7 9/10/7 5/3/7 1/2/7
f 10/12/8 5/3/8 9/10/8
