# Blender v2.80 (sub 75) OBJ File: 'Assets.blend'
# www.blender.org
mtllib Piedra 2.mtl
o Piedra2_Plane.002
v 0.614793 0.408290 -0.351053
v 0.318912 0.432080 -0.666606
v 0.623201 0.303488 -0.887102
v 0.449291 -0.002405 -0.869578
v 0.049036 -0.002405 -0.486771
v 0.712760 -0.002405 -0.819634
v 1.169701 -0.002405 -0.805324
v 0.920381 0.251742 -0.542050
v 0.669031 0.491244 -0.740482
v 0.394401 0.429176 -0.437991
v 0.742947 0.391202 -0.531765
v 0.664117 0.078624 -0.256560
v 0.741096 -0.002405 -0.455420
v 0.398494 0.062995 -0.280412
v 0.742396 0.274034 -0.509039
vt 0.000000 0.000000
vt 0.000000 0.000000
vt 0.000000 0.000000
vt 0.000000 0.000000
vt 0.000000 0.000000
vt 0.000000 0.000000
vt 0.000000 0.000000
vt 0.000000 0.000000
vt 0.000000 0.000000
vt 0.000000 0.000000
vt 0.000000 0.000000
vt 0.000000 0.000000
vt 0.000000 0.000000
vt 0.000000 0.000000
vt 0.000000 0.000000
vn -0.6229 0.1698 -0.7636
vn 0.6079 0.6721 -0.4228
vn 0.0306 -0.2067 -0.9779
vn 0.1838 -0.1601 -0.9698
vn -0.2608 0.6329 -0.7290
vn 0.0422 0.9852 0.1661
vn 0.2016 0.1856 0.9617
vn 0.6162 0.7728 0.1522
vn 0.6222 -0.1791 0.7621
vn -0.2074 0.3191 0.9248
vn -0.6653 0.4665 0.5829
vn 0.9367 0.2186 0.2735
vn 0.8158 0.1064 0.5685
usemtl Piedra
s off
f 2/1/1 3/2/1 4/3/1 5/4/1
f 7/5/2 3/2/2 9/6/2 8/7/2
f 6/8/3 3/2/3 7/5/3
f 4/3/4 3/2/4 6/8/4
f 3/2/5 2/1/5 9/6/5
f 10/9/6 1/10/6 11/11/6 9/6/6 2/1/6
f 8/7/7 15/12/7 13/13/7
f 9/6/8 11/11/8 8/7/8
f 8/7/9 13/13/9 7/5/9
f 14/14/10 12/15/10 1/10/10 10/9/10
f 5/4/11 14/14/11 10/9/11 2/1/11
f 12/15/12 13/13/12 1/10/12
f 13/13/13 15/12/13 1/10/13
f 11/11/7 15/12/7 8/7/7
f 1/10/13 15/12/13 11/11/13
