# Blender v2.80 (sub 75) OBJ File: 'Assets.blend'
# www.blender.org
mtllib Piedra 4.mtl
o Piedra3_Plane.003
v -0.273614 -0.002405 -0.163647
v -0.256642 0.266423 -0.295345
v -0.662624 0.416471 -0.419715
v -0.902428 -0.002405 -0.356280
v -0.130977 0.266099 -0.514247
v -0.089764 -0.002405 -0.491306
v -0.535513 0.378980 -0.803694
v -0.808655 0.333818 -0.651648
v -0.888788 -0.002405 -0.692687
v -0.511088 -0.002405 -1.001999
vt 0.000000 0.000000
vt 0.000000 0.000000
vt 0.000000 0.000000
vt 0.000000 0.000000
vt 0.000000 0.000000
vt 0.000000 0.000000
vt 0.000000 0.000000
vt 0.000000 0.000000
vt 0.000000 0.000000
vt 0.000000 0.000000
vn -0.2291 0.3439 0.9106
vn 0.8563 0.1782 0.4848
vn 0.2812 0.9579 0.0578
vn -0.5654 0.3001 -0.7683
vn -0.9080 0.3893 0.1549
vn 0.6047 0.3976 -0.6901
vn 0.7698 0.0639 -0.6351
vn -0.2559 0.9503 -0.1775
usemtl Piedra
s off
f 2/1/1 3/2/1 4/3/1 1/4/1
f 1/4/2 6/5/2 5/6/2 2/1/2
f 3/2/3 2/1/3 5/6/3 7/7/3
f 10/8/4 9/9/4 8/10/4 7/7/4
f 4/3/5 3/2/5 8/10/5 9/9/5
f 7/7/6 5/6/6 10/8/6
f 5/6/7 6/5/7 10/8/7
f 8/10/8 3/2/8 7/7/8
